# AST/ASF file generated using VICON BodyLanguage
# -----------------------------------------------
:version 1.10
:name VICON
:units
  mass 1.0
  length 0.45
  angle deg
:documentation
   .ast/.asf automatically generated from VICON data using
   VICON BodyBuilder and BodyLanguage model FoxedUp or BRILLIANT.MOD
:root
   order TX TY TZ RX RY RZ
   axis XYZ
   position 0 0 0  
   orientation 0 0 0 
:bonedata
  begin
     id 1 
     name lhipjoint
     direction 0.673618 -0.716094 0.182886 
     length 2.63917 
     axis 0 0 0  XYZ
  end
  begin
     id 2 
     name lfemur
     direction 0.34202 -0.939693 0  
     length 7.41015  
     axis 0 0 20  XYZ
    dof rx ry rz
    limits (-160.0 20.0)
           (-70.0 70.0)
           (-60.0 70.0)
  end
  begin
     id 3 
     name ltibia
     direction 0.34202 -0.939693 0   
     length 7.92551   
     axis 0 0 20   XYZ
    dof rx
    limits (-10.0 170.0)
  end
  begin
     id 4 
     name lfoot
     direction 0.0786834 -0.216181 0.973178   
     length 2.28657   
     axis -90 7.62852e-016 20   XYZ
    dof rx rz
    limits (-45.0 90.0)
           (-70.0 20.0)
  end
  begin
     id 5 
     name ltoes
     direction 1.53562e-011 -4.21928e-011 1   
     length 1.14687   
     axis -90 7.62852e-016 20   XYZ
    dof rx
    limits (-90.0 20.0)
  end
  begin
     id 6 
     name rhipjoint
     direction -0.630561 -0.752002 0.192056   
     length 2.51315  
     axis 0 0 0  XYZ 
  end
  begin
     id 7 
     name rfemur
     direction -0.34202 -0.939693 0   
     length 7.61317   
     axis 0 0 -20   XYZ
    dof rx ry rz
    limits (-160.0 20.0)
           (-70.0 70.0)
           (-70.0 60.0)
  end
  begin
     id 8 
     name rtibia
     direction -0.34202 -0.939693 0   
     length 7.99175   
     axis 0 0 -20   XYZ
    dof rx
    limits (-10.0 170.0)
 end
 begin
     id 9 
     name rfoot
     direction -0.109419 -0.300625 0.947445   
     length 2.34126  
     axis -90 -7.62852e-016 -20   XYZ
    dof rx rz
    limits (-45.0 90.0)
           (-20.0 70.0)
  end
  begin
     id 10 
     name rtoes
     direction -1.53603e-011 -4.21913e-011 1   
     length 1.16381   
     axis -90 -7.62852e-016 -20   XYZ
    dof rx
    limits (-90.0 20.0)
  end
  begin
     id 11 
     name lowerback
     direction 0.0168077 0.993836 -0.109583   
     length 2.02862   
     axis 0 0 0   XYZ
    dof rx ry rz
    limits (-20.0 45.0)
           (-30.0 30.0)
           (-30.0 30.0)
  end
  begin
     id 12 
     name upperback
     direction 0.0170634 0.999844 0.00461437   
     length 2.03044   
     axis 0 0 0   XYZ
    dof rx ry rz
    limits (-20.0 45.0)
           (-30.0 30.0)
           (-30.0 30.0)
  end
  begin
     id 13 
     name thorax
     direction 0.00813305 0.998421 0.0555897   
     length 2.05762   
     axis 0 0 0   XYZ
    dof rx ry rz
    limits (-20.0 45.0)
           (-30.0 30.0)
           (-30.0 30.0)
  end
  begin
     id 14 
     name lowerneck
     direction -0.00127547 0.992596 0.121455   
     length 1.7173   
     axis 0 0 0   XYZ
    dof rx ry rz
    limits (-20.0 45.0)
           (-30.0 30.0)
           (-30.0 30.0)
  end
  begin
     id 15 
     name upperneck
     direction 0.0144921 0.991716 -0.127628   
     length 1.73779   
     axis 0 0 0   XYZ
    dof rx ry rz
    limits (-20.0 45.0)
           (-30.0 30.0)
           (-30.0 30.0)
  end
  begin
     id 16
     name head
     direction 0.00161449 0.998411 -0.0563246  
     length 1.74399  
     axis 0 0 0   XYZ
    dof rx ry rz
    limits (-20.0 45.0)
           (-30.0 30.0)
           (-30.0 30.0)
  end
  begin
     id 17 
     name lclavicle
     direction 0.952642 0.284773 -0.106664  
     length 3.53079  
     axis 0 0 0   XYZ
    dof ry rz
    limits (-20.0 10.0)
           (0.0 20.0)
  end
  begin
     id 18 
     name lhumerus
     direction 1 -4.48971e-011 1.90155e-027   
     length 5.06507   
     axis 180 -30 -90   XYZ
    dof rx ry rz
    limits (-60.0 90.0)
           (-90.0 90.0)
           (-90.0 90.0)
  end
  begin
     id 19
     name lradius
     direction 1 -4.48978e-011 1.0994e-027   
     length 3.60196   
     axis 180 -30 -90   XYZ
    dof rx
    limits (-10.0 170.0)
  end
  begin
     id 20
     name lwrist
     direction 1 -4.48947e-011 2.56952e-028   
     length 1.80098   
     axis -5.12785e-016 90 90   XYZ
    dof ry
    limits (-180.0 0.0)
 end
  begin
     id 21 
     name lhand
     direction 1 -4.49009e-011 5.13905e-028   
     length 0.450346   
     axis -3.27915e-016 90 90   XYZ
    dof rx rz
    limits (-90.0 90.0)
           (-45.0 45.0)
  end
  begin
     id 22 
     name lfingers
     direction 1 -4.48975e-011 1.02781e-027   
     length 0.363081   
     axis -6.5583e-016 90 90   XYZ
    dof rx
    limits (0.0 90.0)
  end
  begin
     id 23
     name lthumb
     direction 0.707107 -6.34941e-011 0.707107   
     length 0.521313   
     axis -90 45 2.85299e-015   XYZ
    dof rx rz
    limits (-45.0 45.0)
           (-45.0 45.0)
  end
  begin
     id 24 
     name rclavicle
     direction -0.955889 0.219434 -0.195256   
     length 3.66318  
     axis 0 0 0   XYZ 
    dof ry rz
    limits (-10.0 20.0)
           (-20.0 0.0)
  end
  begin
     id 25 
     name rhumerus
     direction -1 -4.48973e-011 1.65154e-027  
     length 5.36394   
     axis 180 30 90   XYZ
    dof rx ry rz
    limits (-90.0 60.0)
           (-90.0 90.0)
           (-90.0 90.0)
  end
  begin
     id 26 
     name rradius
     direction -1 -4.4898e-011 3.26231e-028   
     length 3.58035   
     axis 180 30 90   XYZ
    dof rx
    limits (-10.0 170.0)
  end
  begin
     id 27 
     name rwrist
     direction -1 -4.4894e-011 2.56952e-028   
     length 1.79017   
     axis -5.12785e-016 -90 -90   XYZ
    dof ry
    limits (-180.0 0.0)
  end
  begin
     id 28
     name rhand
     direction -1 -4.48999e-011 5.13905e-028   
     length 0.663747   
     axis -3.27915e-016 -90 -90   XYZ
    dof rx rz
    limits (-90.0 90.0)
           (-45.0 45.0)
  end
  begin
     id 29
     name rfingers
     direction -1 -4.49025e-011 1.02781e-027   
     length 0.53513   
     axis -6.5583e-016 -90 -90   XYZ
    dof rx
    limits (0.0 90.0)
  end
  begin
     id 30
     name rthumb
     direction -0.707107 -6.34891e-011 0.707107   
     length 0.768342   
     axis -90 -45 -2.85299e-015   XYZ
    dof rx rz
    limits (-45.0 45.0)
           (-45.0 45.0)
  end
:hierarchy
  begin
    root lhipjoint rhipjoint lowerback
    lhipjoint lfemur
    lfemur ltibia
    ltibia lfoot
    lfoot ltoes
    rhipjoint rfemur
    rfemur rtibia
    rtibia rfoot
    rfoot rtoes
    lowerback upperback
    upperback thorax
    thorax lowerneck lclavicle rclavicle
    lowerneck upperneck
    upperneck head
    lclavicle lhumerus
    lhumerus lradius
    lradius lwrist
    lwrist lhand lthumb
    lhand lfingers
    rclavicle rhumerus
    rhumerus rradius
    rradius rwrist
    rwrist rhand rthumb
    rhand rfingers
  end

#!OML:ASF F:\VICON\USERDATA\INSTALL\rory3\rory3.ASF
:FULLY-SPECIFIED
:DEGREES
16
root 4.59722 17.7467 -18.2125 -1.33104 -8.20791 -7.04153
lowerback 10.7001 1.95101 4.67614
upperback 0.98732 3.24894 2.07408
thorax -4.82802 1.5248 -0.933833
lowerneck -16.1312 -3.78821 -1.92518
upperneck 20.6054 -4.94776 0.765538
head 9.21106 -2.38018 -0.0427424
rclavicle -5.52249e-015 -1.03368e-014
rhumerus -21.2491 -11.9754 -81.6855
rradius 31.1906
rwrist -0.0822243
rhand -18.2491 24.2154
rfingers 7.12502
rthumb 8.0299 -5.61204
lclavicle -5.52249e-015 -1.03368e-014
lhumerus -36.5432 4.06568 84.0833
lradius 25.387
lwrist 0.700112
lhand -23.4575 30.5115
lfingers 7.12502
lthumb 3.00128 60.4701
rfemur 9.4133 7.96348 32.9183
rtibia 33.3748
rfoot -16.4083 -0.401913
rtoes -3.14863
lfemur -25.9072 -2.98158 -12.1287
ltibia 21.4925
lfoot -7.76057 4.18651
ltoes -1.93608
17
root 4.61485 17.7555 -17.9892 -1.42886 -8.01199 -6.80407
lowerback 10.5476 1.87554 4.46113
upperback 0.707253 3.1279 2.06652
thorax -5.05399 1.46179 -0.804774
lowerneck -15.2483 -3.72449 -2.06787
upperneck 20.7985 -4.85051 0.784243
head 9.11868 -2.34997 0.0149708
rclavicle -1.85367e-014 1.12313e-014
rhumerus -22.1258 -11.8575 -81.4472
rradius 31.1847
rwrist 0.161299
rhand -18.2727 24.3267
rfingers 7.12502
rthumb 8.00712 -5.50165
lclavicle -1.85367e-014 1.12313e-014
lhumerus -37.4333 3.51292 84.4964
lradius 24.9795
lwrist 3.53987
lhand -27.7274 23.421
lfingers 7.12502
lthumb -1.12266 53.3978
rfemur 9.49028 7.23925 32.3728
rtibia 34.5221
rfoot -15.2106 0.205952
rtoes -4.12203
lfemur -25.5746 -2.67593 -12.7072
ltibia 21.7272
lfoot -5.49451 3.99854
ltoes 11.159
18
root 4.62786 17.7608 -17.7713 -1.66519 -7.85117 -6.55455
lowerback 10.5535 1.83077 4.15802
upperback 0.710869 3.03253 2.05393
thorax -5.07234 1.42134 -0.635556
lowerneck -15.2285 -3.74373 -2.0504
upperneck 21.1256 -4.86559 0.68381
head 9.22539 -2.36544 -0.0271787
rclavicle -6.83322e-016 -1.91827e-014
rhumerus -22.4194 -11.8724 -81.3074
rradius 31.1153
rwrist 0.235169
rhand -17.9981 24.5493
rfingers 7.12502
rthumb 8.27218 -5.26875
lclavicle -6.83322e-016 -1.91827e-014
lhumerus -37.6053 3.21889 84.7661
lradius 24.4574
lwrist 5.2336
lhand -29.7411 22.3373
lfingers 7.12502
lthumb -3.06745 52.295
rfemur 9.53665 6.65141 31.9061
rtibia 35.8048
rfoot -13.7361 0.577492
rtoes -5.09871
lfemur -25.2047 -3.02731 -13.0377
ltibia 22.0539
lfoot -3.42875 3.03045
ltoes 5.48528
19
root 4.64132 17.777 -17.5529 -1.74908 -7.57701 -5.96257
lowerback 10.4281 1.89645 3.56696
upperback 0.938807 3.02448 1.87039
thorax -4.78294 1.43635 -0.48631
lowerneck -16.5452 -3.8802 -1.81824
upperneck 21.7608 -5.07521 0.57161
head 9.68514 -2.44298 -0.165806
rclavicle -2.51152e-014 -1.67973e-014
rhumerus -22.1852 -12.5812 -81.2074
rradius 31.0349
rwrist 0.474065
rhand -17.7538 24.5554
rfingers 7.12502
rthumb 8.50794 -5.25324
lclavicle -2.51152e-014 -1.67973e-014
lhumerus -36.9785 3.00476 84.8316
lradius 24.0784
lwrist 5.52992
lhand -29.5904 25.4108
lfingers 7.12502
lthumb -2.92185 55.3705
rfemur 9.18996 6.08163 31.0252
rtibia 37.2906
rfoot -11.9654 0.914074
rtoes -5.26855
lfemur -24.9998 -3.22331 -13.9113
ltibia 22.6368
lfoot -2.89791 2.83047
ltoes -0.478769
20
root 4.654 17.8004 -17.3336 -1.80497 -7.25051 -5.37217
lowerback 10.6807 1.78221 2.71844
upperback 0.249528 2.81521 1.9262
thorax -5.69913 1.33512 0.0542069
lowerneck -15.2133 -3.7329 -2.1174
upperneck 22.0414 -4.83256 0.59737
head 9.54158 -2.36155 -0.0515866
rclavicle 3.28903e-014 1.59276e-014
rhumerus -23.8353 -12.3943 -80.6522
rradius 31.1532
rwrist 0.682174
rhand -17.5733 24.6602
rfingers 7.12502
rthumb 8.68213 -5.14121
lclavicle 3.28903e-014 1.59276e-014
lhumerus -38.3632 3.40173 84.7545
lradius 24.1089
lwrist 5.4308
lhand -28.3388 26.185
lfingers 7.12502
lthumb -1.71311 56.1578
rfemur 8.60992 5.54947 30.1915
rtibia 38.9882
rfoot -9.72051 1.19723
rtoes -4.97521
lfemur -24.8195 -2.79463 -14.9622
ltibia 23.4282
lfoot -3.33025 1.96573
ltoes -5.15011
21
root 4.66309 17.8202 -17.1197 -1.95251 -6.83865 -4.96234
lowerback 10.1864 1.64409 2.32886
upperback 0.458248 2.55424 1.84793
thorax -5.21899 1.22343 0.248757
lowerneck -15.2566 -3.63229 -2.27343
upperneck 22.1236 -4.70765 0.823508
head 9.58717 -2.29015 0.0663538
rclavicle -3.54838e-014 4.22417e-015
rhumerus -23.8332 -12.8595 -80.5557
rradius 30.8686
rwrist 0.950555
rhand -17.6515 24.7012
rfingers 7.12502
rthumb 8.60669 -5.10339
lclavicle -3.54838e-014 4.22417e-015
lhumerus -38.0184 3.70923 84.5795
lradius 23.7358
lwrist 5.13249
lhand -27.2094 25.9389
lfingers 7.12502
lthumb -0.622296 55.9178
rfemur 7.99002 4.9 29.5879
rtibia 40.8221
rfoot -6.83656 1.59272
rtoes -3.23442
lfemur -24.5519 -2.22844 -15.793
ltibia 24.4229
lfoot -3.43717 0.567772
ltoes -2.23294
22
root 4.66804 17.8249 -16.9138 -2.13331 -6.39567 -4.49294
lowerback 10.3534 1.54392 1.79307
upperback 0.402155 2.36084 1.74939
thorax -5.39051 1.13835 0.468659
lowerneck -15.3466 -3.69474 -2.36375
upperneck 22.3816 -4.79095 0.886454
head 9.70079 -2.32754 0.0878459
rclavicle -6.19533e-015 -1.75055e-014
rhumerus -24.1369 -13.5829 -80.3085
rradius 30.4661
rwrist 1.48572
rhand -17.9146 24.8873
rfingers 7.12502
rthumb 8.35278 -4.92755
lclavicle -6.19533e-015 -1.75055e-014
lhumerus -38.0108 3.66949 84.503
lradius 23.295
lwrist 5.37123
lhand -25.5333 28.2926
lfingers 7.12502
lthumb 0.996485 58.27
rfemur 7.27744 4.23584 28.9162
rtibia 42.7695
rfoot -3.47395 2.03622
rtoes -0.376686
lfemur -24.3071 -1.66369 -16.6696
ltibia 25.4281
lfoot -3.17826 -0.601105
ltoes -2.62971
23
root 4.68053 17.8307 -16.702 -2.30947 -5.95731 -4.07819
lowerback 10.4615 1.48986 1.46252
upperback 0.332686 2.24593 1.59074
thorax -5.53037 1.08705 0.501647
lowerneck -15.3066 -3.83599 -2.3346
upperneck 22.5927 -5.00753 0.905825
head 9.77157 -2.42259 0.06013
rclavicle 2.68375e-014 2.39039e-014
rhumerus -24.7453 -14.2114 -80.0892
rradius 30.3859
rwrist 1.67314
rhand -18.3756 24.7039
rfingers 7.12502
rthumb 7.90787 -5.12823
lclavicle 2.68375e-014 2.39039e-014
lhumerus -37.9985 3.63143 84.3208
lradius 22.7645
lwrist 5.51421
lhand -24.6063 29.9559
lfingers 7.12502
lthumb 1.89183 59.9273
rfemur 6.50083 3.52918 28.2012
rtibia 44.801
rfoot -0.12512 2.44153
rtoes 1.56648
lfemur -23.9282 -1.51881 -17.413
ltibia 26.2337
lfoot -2.72101 -0.849011
ltoes -1.5285
24
root 4.69607 17.8291 -16.4871 -2.5299 -5.69647 -3.71945
lowerback 10.3205 1.50873 1.25841
upperback 0.456083 2.23019 1.40657
thorax -5.32164 1.08396 0.431864
lowerneck -15.4188 -3.91124 -2.1651
upperneck 22.5988 -5.16258 0.937267
head 9.79333 -2.47511 0.0203818
rclavicle 1.22439e-014 -2.48481e-016
rhumerus -25.2797 -14.846 -79.9423
rradius 30.5642
rwrist 1.65178
rhand -18.573 24.2696
rfingers 7.12502
rthumb 7.7173 -5.5696
lclavicle 1.22439e-014 -2.48481e-016
lhumerus -37.7171 3.74993 83.9871
lradius 22.5355
lwrist 4.99934
lhand -23.4264 32.3997
lfingers 7.12502
lthumb 3.03131 62.3579
rfemur 5.70129 3.05224 27.5462
rtibia 46.909
rfoot 2.55381 2.59684
rtoes 0.442962
lfemur -23.4974 -1.43222 -17.9627
ltibia 26.8496
lfoot -3.57908 -1.38381
ltoes -1.70589
25
root 4.71497 17.8187 -16.2781 -2.62136 -5.62213 -3.59642
lowerback 10.2453 1.55074 1.32312
upperback 0.447803 2.28654 1.30431
thorax -5.2813 1.10925 0.282629
lowerneck -15.3655 -3.97419 -2.14903
upperneck 22.5521 -5.28014 1.03713
head 9.77126 -2.51736 0.0385928
rclavicle 1.15823e-014 2.07233e-014
rhumerus -25.9705 -15.49 -79.6778
rradius 30.6493
rwrist 1.59048
rhand -18.4988 24.1147
rfingers 7.12502
rthumb 7.78892 -5.72182
lclavicle 1.15823e-014 2.07233e-014
lhumerus -37.6218 3.79141 83.6992
lradius 22.466
lwrist 4.07391
lhand -22.9593 33.606
lfingers 7.12502
lthumb 3.48238 63.5573
rfemur 4.63861 2.81073 27.1456
rtibia 49.0687
rfoot 6.3968 3.49497
rtoes 5.90963
lfemur -23.2592 -1.3034 -18.1995
ltibia 27.3538
lfoot -3.66977 -1.69557
ltoes 0.458753
